<svg id="Layer_1" xmlns="http://www.w3.org/2000/svg" viewBox="0 0 210 210"><style>.st0{fill:none;stroke:#FFFFFF;stroke-width:2.549;stroke-linejoin:round;stroke-miterlimit:10;} .st1{fill:none;stroke:#FFFFFF;stroke-width:2.549;stroke-linecap:round;stroke-linejoin:round;stroke-miterlimit:10;}</style><path class="st0" d="M169.1 155.3H44.9c-1.4 0-2.4-1-2.4-2.4V72.7c0-1.4 1-2.4 2.4-2.4h124.4c1.4 0 2.4 1 2.4 2.4v80.2c-.2 1.4-1.2 2.4-2.6 2.4z"/><path class="st1" d="M132.5 69.8h-51c-.5 0-.7-.2-.7-.7V54.9c0-.5.2-.7.7-.7h50.8c.5 0 .7.2.7.7v14.2c0 .5-.3.7-.5.7z"/><path class="st0" d="M41.5 112.4h51.8M120.5 112.4h51.8"/><path class="st1" d="M120.2 123H93.7c-.2 0-.5-.2-.5-.5v-22.4c0-.2.2-.5.5-.5h26.5c.2 0 .5.2.5.5v22.1c0 .6-.3.8-.5.8zM139.4 69.9H74.5c-.4 0-.7-.3-.7-.7V48.8c0-.4.3-.7.7-.7h64.8c.4 0 .7.3.7.7V69c0 .6-.4.9-.6.9z"/></svg>